# File created by Blade
# Date/Time:  Wed Jan 21 18:02:19 2015
# Frame Rate: 120.000 fps
#------------------------------------------------------
:FULLY-SPECIFIED
:DEGREES
984
root 11.557625 36.243111 -22.569343 -228.648863 -22.241134 -152.731346
Spine 43.889307 -19.260886 26.017966
Head -17.287456 -19.708117 5.682789
LeftShoulder 3.417817 -27.103217 -7.813689
LeftArm -7.315485 15.960830 -56.086647
LeftForeArm -10.398594 -0.000000 -2.004155
LeftHand -5.456766 0.000000 4.293935
LeftHandThumb1 -26.253704 0.000000 33.147579
RightShoulder 1.344899 -7.559459 -2.838667
RightArm 13.049575 -3.580235 29.756745
RightForeArm -18.281912 -0.000000 8.486765
RightHand -2.391006 -0.000000 6.178900
RightHandThumb1 -24.326973 -0.000000 -32.862282
LeftUpLeg 21.489685 1.467430 21.037991
LeftLeg 30.565195 -0.000000 -0.000000
LeftFoot -31.533397 16.916949 -11.719339
LeftToeBase 23.267890 -0.000000 -0.000000
RightUpLeg -78.957139 -38.966114 -13.869990
RightLeg 7.461633 -0.000000 -0.000000
RightFoot -22.028323 -40.606011 8.171845
RightToeBase -1.482938 -0.000000 0.000000
985
root 11.536254 36.281639 -22.514458 -227.799567 -20.346986 -153.185524
Spine 43.800396 -17.587461 27.859978
Head -17.280553 -20.212527 5.046251
LeftShoulder 3.152576 -26.952400 -7.995458
LeftArm -8.088494 15.249338 -56.868539
LeftForeArm -10.392790 -0.000000 -2.209702
LeftHand -5.449920 -0.000000 4.193037
LeftHandThumb1 -26.253704 0.000000 33.147579
RightShoulder 1.534742 -7.527428 -3.447927
RightArm 13.076366 -4.407811 29.801697
RightForeArm -18.302798 0.000000 8.572736
RightHand -2.177520 0.000000 6.422055
RightHandThumb1 -24.326973 -0.000000 -32.862282
LeftUpLeg 21.912512 2.639470 21.699965
LeftLeg 29.965252 -0.000000 -0.000000
LeftFoot -31.469734 17.556936 -12.003528
LeftToeBase 23.003306 -0.000000 -0.000000
RightUpLeg -77.634718 -38.093929 -13.792036
RightLeg 6.977786 -0.000000 -0.000000
RightFoot -22.320873 -40.632733 8.712603
RightToeBase -1.717461 -0.000000 0.000000
986
root 11.475973 36.287632 -22.456075 -226.781106 -19.356310 -153.199003
Spine 42.848206 -16.584487 29.419416
Head -17.020077 -20.692345 4.375150
LeftShoulder 2.754943 -26.676193 -8.257575
LeftArm -8.941002 14.666912 -57.535033
LeftForeArm -10.398661 0.000000 -2.342127
LeftHand -5.510713 -0.000000 4.140644
LeftHandThumb1 -26.253704 0.000000 33.147579
RightShoulder 1.644023 -7.615664 -3.828298
RightArm 13.044674 -5.083153 29.764818
RightForeArm -18.224142 -0.000000 8.733835
RightHand -1.794187 -0.000000 6.563080
RightHandThumb1 -24.326973 -0.000000 -32.862282
LeftUpLeg 21.451573 2.897471 21.661088
LeftLeg 29.716107 -0.000000 -0.000000
LeftFoot -31.649569 18.548830 -12.180275
LeftToeBase 22.655068 -0.000000 -0.000000
RightUpLeg -76.448141 -38.238731 -14.114559
RightLeg 6.760680 -0.000000 -0.000000
RightFoot -22.442388 -40.615231 8.734835
RightToeBase -1.917437 -0.000000 0.000000
987
root 11.420033 36.295946 -22.395211 -225.712491 -18.243038 -153.194908
Spine 41.905756 -15.575914 30.988820
Head -16.624279 -21.006152 3.572207
LeftShoulder 2.253204 -26.252576 -8.498775
LeftArm -9.720096 14.160835 -58.220733
LeftForeArm -10.555699 0.000000 -2.479623
LeftHand -5.506845 -0.000000 4.133644
LeftHandThumb1 -26.253704 0.000000 33.147579
RightShoulder 1.798369 -7.764844 -4.259054
RightArm 13.010788 -5.416896 29.898436
RightForeArm -18.329404 -0.000000 8.940493
RightHand -1.845725 0.000000 6.780532
RightHandThumb1 -24.326973 -0.000000 -32.862282
LeftUpLeg 20.992314 3.266651 21.740685
LeftLeg 29.423306 -0.000000 -0.000000
LeftFoot -31.796953 19.509519 -12.274075
LeftToeBase 22.431743 -0.000000 -0.000000
RightUpLeg -75.122105 -38.170281 -14.466939
RightLeg 6.585932 -0.000000 -0.000000
RightFoot -22.656257 -40.485677 8.981266
RightToeBase -2.280671 -0.000000 0.000000
988
root 11.358382 36.305918 -22.340517 -224.667874 -17.112694 -153.190633
Spine 41.026329 -14.584177 32.466429
Head -16.250942 -21.289702 2.800148
LeftShoulder 1.676843 -25.938505 -8.694996
LeftArm -10.609816 13.592748 -58.920266
LeftForeArm -10.396248 -0.000000 -2.618623
LeftHand -5.571306 -0.000000 4.269437
LeftHandThumb1 -26.253704 0.000000 33.147579
RightShoulder 1.941560 -7.874873 -4.642278
RightArm 12.932512 -5.660272 30.072560
RightForeArm -18.188207 0.000000 9.083480
RightHand -1.811837 -0.000000 7.448719
RightHandThumb1 -24.326973 -0.000000 -32.862282
LeftUpLeg 20.591904 3.652868 21.833077
LeftLeg 29.098403 -0.000000 -0.000000
LeftFoot -31.958485 20.439969 -12.394958
LeftToeBase 22.251007 -0.000000 -0.000000
RightUpLeg -73.724781 -37.998037 -14.761422
RightLeg 6.422075 -0.000000 -0.000000
RightFoot -22.810236 -40.364417 8.979125
RightToeBase -2.295017 -0.000000 0.000000
989
root 11.298139 36.311961 -22.281406 -223.569650 -16.011587 -153.195404
Spine 40.134758 -13.539626 33.849780
Head -15.825306 -21.468678 2.050842
LeftShoulder 1.135284 -25.541693 -8.830584
LeftArm -11.479815 13.080625 -59.676278
LeftForeArm -10.434181 -0.000000 -2.764684
LeftHand -5.676758 -0.000000 4.282304
LeftHandThumb1 -26.253704 0.000000 33.147579
RightShoulder 1.994433 -8.011043 -4.923180
RightArm 12.891332 -5.792011 30.255578
RightForeArm -18.070956 0.000000 9.187232
RightHand -1.546422 -0.000000 7.863583
RightHandThumb1 -24.326973 -0.000000 -32.862282
LeftUpLeg 20.108980 4.076746 21.899382
LeftLeg 28.806265 -0.000000 -0.000000
LeftFoot -32.108374 21.348716 -12.487816
LeftToeBase 22.024264 -0.000000 -0.000000
RightUpLeg -72.315728 -37.721202 -15.098013
RightLeg 6.346091 -0.000000 -0.000000
RightFoot -23.148703 -40.125116 9.355547
RightToeBase -2.260675 -0.000000 0.000000
990
root 11.230311 36.321531 -22.226877 -222.489559 -14.897453 -153.205865
Spine 39.286677 -12.512737 35.172416
Head -15.412872 -21.635366 1.303061
LeftShoulder 0.607938 -25.113062 -8.986503
LeftArm -12.411115 12.838121 -60.503484
LeftForeArm -10.754451 0.000000 -2.853675
LeftHand -5.750294 -0.000000 4.372195
LeftHandThumb1 -26.253704 0.000000 33.147579
RightShoulder 2.001370 -8.203430 -5.180803
RightArm 12.880205 -5.891794 30.458481
RightForeArm -17.891498 -0.000000 9.291117
RightHand -1.541363 -0.000000 8.392601
RightHandThumb1 -24.326973 -0.000000 -32.862282
LeftUpLeg 19.706311 4.569492 21.997604
LeftLeg 28.425881 -0.000000 -0.000000
LeftFoot -32.222735 22.188426 -12.563170
LeftToeBase 21.936230 -0.000000 -0.000000
RightUpLeg -70.883028 -37.369177 -15.326871
RightLeg 6.250876 -0.000000 -0.000000
RightFoot -23.240069 -39.984681 9.544984
RightToeBase -2.539067 -0.000000 0.000000
